<?xml version="1.0" standalone="no"?>
<!DOCTYPE svg PUBLIC "-//W3C//DTD SVG 20010904//EN"
 "http://www.w3.org/TR/2001/REC-SVG-20010904/DTD/svg10.dtd">
<svg version="1.0" xmlns="http://www.w3.org/2000/svg"
 width="96.000000pt" height="96.000000pt" viewBox="0 0 96.000000 96.000000"
 preserveAspectRatio="xMidYMid meet">

<g transform="translate(0.000000,96.000000) scale(0.100000,-0.100000)"
fill="#000000" stroke="none">
<path d="M124 867 c-2 -7 -3 -172 -2 -365 l3 -352 33 -32 32 -33 290 0 290 0
32 33 33 32 0 363 0 362 -353 3 c-286 2 -353 0 -358 -11z m656 -367 c0 -307
-1 -321 -20 -340 -19 -19 -33 -20 -280 -20 -247 0 -261 1 -280 20 -19 19 -20
33 -20 340 l0 320 300 0 300 0 0 -320z"/>
<path d="M280 672 c0 -26 5 -53 12 -60 17 -17 359 -17 376 0 7 7 12 34 12 60
l0 48 -200 0 -200 0 0 -48z"/>
<path d="M290 465 c-15 -18 -10 -45 13 -59 34 -22 73 27 47 59 -16 19 -44 19
-60 0z"/>
<path d="M450 465 c-15 -18 -10 -45 13 -59 34 -22 73 27 47 59 -16 19 -44 19
-60 0z"/>
<path d="M611 466 c-8 -9 -11 -48 -9 -111 2 -80 6 -100 21 -109 12 -8 22 -8
35 0 14 9 18 29 20 109 3 101 -4 125 -38 125 -10 0 -23 -6 -29 -14z"/>
<path d="M290 305 c-26 -32 13 -81 48 -59 22 14 27 41 12 59 -16 19 -44 19
-60 0z"/>
<path d="M450 305 c-15 -18 -10 -45 13 -59 34 -22 73 27 47 59 -16 19 -44 19
-60 0z"/>
</g>
</svg>
